<svg xmlns="http://www.w3.org/2000/svg" width="120" height="32"><path d="M9.766 19.489v4.36c0 2.18-.96 2.964-2.485 2.964-1.526 0-2.485-.785-2.485-2.965V7.368c0-2.18.959-3.008 2.485-3.008 1.526 0 2.485.828 2.485 3.008v3.27H14.3V7.673C14.3 2.79 11.86 0 7.15 0 2.442 0 0 2.79 0 7.673v15.87c0 4.883 2.442 7.674 7.15 7.674 4.709 0 7.15-2.79 7.15-7.674V19.49H9.766ZM27.86.349l4.883 30.519h-4.84l-.828-5.537h-5.886l-.828 5.537h-4.404L20.84.348h7.02Zm-3.794 5.406L21.8 21.189h4.622L24.154 5.755h-.088Zm25.81 25.113h-4.882c-.262-.785-.436-1.264-.436-3.75v-4.795c0-2.834-.96-3.88-3.14-3.88h-1.656v12.425h-4.796V.348h7.238c4.97 0 7.106 2.312 7.106 7.02v2.398c0 3.14-1.003 5.145-3.139 6.148 2.398 1.09 3.183 3.357 3.183 6.54v4.708c0 1.482.043 2.572.523 3.706Zm-7.803-26.16h-2.311v9.374h1.875c1.787 0 2.877-.784 2.877-3.226V7.848c0-2.18-.74-3.14-2.441-3.14Zm22.42-4.36 4.883 30.52h-4.839l-.828-5.537h-5.886l-.829 5.537h-4.403L57.474.348h7.02ZM60.7 5.756l-2.267 15.434h4.622L60.788 5.755H60.7ZM73.813.349h-4.84l4.709 30.519h7.15L85.541.348h-4.404L77.52 25.245h-.088L73.813.349Zm23.227 0 4.883 30.519h-4.84l-.828-5.537H90.37l-.828 5.537h-4.404L90.02.348h7.02Zm-3.793 5.406L90.98 21.189H95.6L93.334 5.755h-.087Zm21.826 25.113H120V.348h-4.273v18.269h-.087L110.8.349h-6.016v30.519h4.316V8.763h.088l5.885 22.105Z"/></svg>